# xmcd
#
# Track frame offsets: 
#        150
#        13934
#        29180
#        45393
#        61060
#        73578
#        91507
#        108743
#        124156
#        140648
#
# Disc length: 2013 seconds
#
# Revision: 1
# Processed by: cddbd v1.5.2PL0 Copyright (c) Steve Scherf et al.
# Submitted via: ExactAudioCopy v0.99pb3
#
DISCID=8b07db0a
DTITLE=Various Artist - Close to You Bonus Disc
DYEAR=2008
DGENRE=Jazz
TTITLE0=You're A Part of Me - Julie Simon
TTITLE1=Baby Baby - Saeeda Wright
TTITLE2=From the Heart - Isela Sotelo
TTITLE3=Tell My Heary It's Over - Terrell Moses
TTITLE4=Shoulda Been Baby - Natasha Neuschwander
TTITLE5=Someone There For Me - Rebecca Blaylock
TTITLE6=Destiny - Robbie Wyckoff and Deena Russo
TTITLE7=In Love Again - Anika Paris
TTITLE8=Knock on My Door - Rebecca Blaylock
TTITLE9=My Love WIll Get You Home - Christine Glass
EXTD=YEAR: 2008
EXTT0=
EXTT1=
EXTT2=
EXTT3=
EXTT4=
EXTT5=
EXTT6=
EXTT7=
EXTT8=
EXTT9=
PLAYORDER=
